<?xml version="1.0" encoding="UTF-8" standalone="no"?>
<!DOCTYPE svg PUBLIC "-//W3C//DTD SVG 1.1//EN" "http://www.w3.org/Graphics/SVG/1.1/DTD/svg11.dtd">
<svg width="100%" height="100%" viewBox="0 0 100 100" version="1.1" xmlns="http://www.w3.org/2000/svg" xmlns:xlink="http://www.w3.org/1999/xlink" xml:space="preserve" xmlns:serif="http://www.serif.com/" style="fill-rule:evenodd;clip-rule:evenodd;stroke-linejoin:round;stroke-miterlimit:1.41421;">
    <g transform="matrix(1,0,0,1,-217.798,-5481.83)">
        <g transform="matrix(1,0,0,1,-656.629,5134.42)">
            <g transform="matrix(1,0,0,1,363.482,-1142.95)">
                <g transform="matrix(0.607416,0,0,0.607416,154.261,524.639)">
                    <circle cx="669.529" cy="1672.19" r="82.316" style="fill:rgb(100,112,130);"/>
                </g>
                <g transform="matrix(1,0,0,1,-431.141,-4928.01)">
                    <g transform="matrix(3.52113,0,0,3.52113,949.832,6425.75)">
                        <path d="M12,19.2C9.5,19.2 7.29,17.92 6,15.98C6.03,13.99 10,12.9 12,12.9C13.99,12.9 17.97,13.99 18,15.98C16.71,17.92 14.5,19.2 12,19.2Z" style="fill:white;"/>
                    </g>
                    <g transform="matrix(3.52113,0,0,3.52113,949.832,6425.75)">
                        <path d="M12,5C13.66,5 15,6.34 15,8C15,9.66 13.66,11 12,11C10.34,11 9,9.66 9,8C9,6.34 10.34,5 12,5Z" style="fill:white;"/>
                    </g>
                </g>
            </g>
        </g>
    </g>
</svg>
