<?xml version="1.0" encoding="UTF-8" standalone="no"?>
<!DOCTYPE svg PUBLIC "-//W3C//DTD SVG 1.1//EN" "http://www.w3.org/Graphics/SVG/1.1/DTD/svg11.dtd">
<svg width="100%" height="100%" viewBox="0 0 100 100" version="1.1" xmlns="http://www.w3.org/2000/svg" xmlns:xlink="http://www.w3.org/1999/xlink" xml:space="preserve" xmlns:serif="http://www.serif.com/" style="fill-rule:evenodd;clip-rule:evenodd;stroke-linejoin:round;stroke-miterlimit:1.41421;">
    <g transform="matrix(1,0,0,1,-897.895,-2734.77)">
        <g transform="matrix(1,0,0,1,-235.837,2616.02)">
            <g transform="matrix(-1.11022e-16,1,-1,-1.11022e-16,2724.09,-392.2)">
                <g transform="matrix(0.607416,0,0,0.607416,154.261,524.639)">
                    <circle cx="669.529" cy="1672.19" r="82.316" style="fill:rgb(122,0,134);"/>
                </g>
                <g transform="matrix(-2.19846e-17,-0.19802,0.19802,-2.19846e-17,527.281,1611.72)">
                    <path d="M244.133,100L244.133,90L476.633,90L476.633,100L486.633,100L486.633,250L234.133,250L234.133,100L244.133,100ZM346.633,172L301.633,172L301.633,247L346.633,247L346.633,172ZM299.133,172L254.133,172L254.133,247L299.133,247L299.133,172ZM466.633,140L366.633,140L366.633,240L466.633,240L466.633,140Z" style="fill:white;"/>
                </g>
            </g>
        </g>
    </g>
</svg>
