<?xml version="1.0" encoding="UTF-8" standalone="no"?>
<!DOCTYPE svg PUBLIC "-//W3C//DTD SVG 1.1//EN" "http://www.w3.org/Graphics/SVG/1.1/DTD/svg11.dtd">
<svg width="100%" height="100%" viewBox="0 0 100 100" version="1.1" xmlns="http://www.w3.org/2000/svg" xmlns:xlink="http://www.w3.org/1999/xlink" xml:space="preserve" xmlns:serif="http://www.serif.com/" style="fill-rule:evenodd;clip-rule:evenodd;stroke-linejoin:round;stroke-miterlimit:1.41421;">
    <g transform="matrix(1,0,0,1,-918.212,-6571.19)">
        <g transform="matrix(1,0,0,1,43.7858,6223.78)">
            <g transform="matrix(1,0,0,1,363.482,-1142.95)">
                <g transform="matrix(0.607416,0,0,0.607416,154.261,524.639)">
                    <circle cx="669.529" cy="1672.19" r="82.316" style="fill:rgb(65,64,66);"/>
                </g>
                <g transform="matrix(2.29167,0,0,2.29167,561.944,1540.35)">
                    <g transform="matrix(1,0,0,1,-12,-12)">
                        <path d="M11.8,10.9C9.53,10.31 8.8,9.7 8.8,8.75C8.8,7.66 9.81,6.9 11.5,6.9C13.28,6.9 13.94,7.75 14,9L16.21,9C16.14,7.28 15.09,5.7 13,5.19L13,3L10,3L10,5.16C8.06,5.58 6.5,6.84 6.5,8.77C6.5,11.08 8.41,12.23 11.2,12.9C13.7,13.5 14.2,14.38 14.2,15.31C14.2,16 13.71,17.1 11.5,17.1C9.44,17.1 8.63,16.18 8.52,15L6.32,15C6.44,17.19 8.08,18.42 10,18.83L10,21L13,21L13,18.85C14.95,18.48 16.5,17.35 16.5,15.3C16.5,12.46 14.07,11.49 11.8,10.9Z" style="fill:white;fill-rule:nonzero;"/>
                        <rect x="0" y="0" width="24" height="24" style="fill:none;"/>
                    </g>
                </g>
            </g>
        </g>
    </g>
</svg>
