<?xml version="1.0" encoding="UTF-8" standalone="no"?><!DOCTYPE svg PUBLIC "-//W3C//DTD SVG 1.1//EN" "http://www.w3.org/Graphics/SVG/1.1/DTD/svg11.dtd"><svg width="100%" height="100%" viewBox="0 0 24 24" version="1.1" xmlns="http://www.w3.org/2000/svg" xmlns:xlink="http://www.w3.org/1999/xlink" xml:space="preserve" style="fill-rule:evenodd;clip-rule:evenodd;stroke-linejoin:round;stroke-miterlimit:1.41421;"><circle cx="12" cy="12" r="11" style="fill:#5b5d5f;"/><path d="M12.238,11.328c-1.387,-0.361 -1.833,-0.734 -1.833,-1.314c0,-0.666 0.617,-1.131 1.65,-1.131c1.088,0 1.491,0.52 1.528,1.284l1.35,0c-0.042,-1.051 -0.684,-2.017 -1.961,-2.329l0,-1.338l-1.834,0l0,1.32c-1.185,0.257 -2.139,1.027 -2.139,2.206c0,1.412 1.168,2.115 2.873,2.524c1.527,0.367 1.833,0.904 1.833,1.473c0,0.421 -0.299,1.094 -1.65,1.094c-1.259,0 -1.754,-0.563 -1.821,-1.284l-1.345,0c0.074,1.339 1.076,2.09 2.249,2.341l0,1.326l1.834,0l0,-1.314c1.191,-0.226 2.139,-0.917 2.139,-2.169c0,-1.736 -1.485,-2.329 -2.873,-2.689Z" style="fill:#fff;fill-rule:nonzero;"/><path d="M0,0l24,0l0,24l-24,0l0,-24Z" style="fill:none;"/></svg>