<?xml version="1.0" encoding="UTF-8" standalone="no"?><!DOCTYPE svg PUBLIC "-//W3C//DTD SVG 1.1//EN" "http://www.w3.org/Graphics/SVG/1.1/DTD/svg11.dtd"><svg width="100%" height="100%" viewBox="0 0 24 24" version="1.1" xmlns="http://www.w3.org/2000/svg" xmlns:xlink="http://www.w3.org/1999/xlink" xml:space="preserve" style="fill-rule:evenodd;clip-rule:evenodd;stroke-linejoin:round;stroke-miterlimit:1.41421;"><path d="M0,0l24,0l0,24l-24,0l0,-24Z" style="fill:none;"/><circle cx="12" cy="12" r="11" style="fill:#2cb673;"/><path d="M9.237,8.052c0,-0.217 -0.178,-0.394 -0.395,-0.394c-0.217,0 -0.395,0.177 -0.395,0.394l0,1.579l-0.789,0l0,2.369l2.368,0l0,-2.369l-0.789,0l0,-1.579Zm1.579,5.527c0,0.513 0.331,0.947 0.789,1.113l0,1.65l0.79,0l0,-1.65c0.458,-0.162 0.789,-0.596 0.789,-1.113l0,-0.789l-2.368,0l0,0.789Zm-3.158,0c0,0.513 0.331,0.947 0.789,1.113l0,1.65l0.79,0l0,-1.65c0.458,-0.166 0.789,-0.6 0.789,-1.113l0,-0.789l-2.368,0l0,0.789Zm7.895,-3.948l0,-1.579c0,-0.217 -0.178,-0.394 -0.395,-0.394c-0.217,0 -0.395,0.177 -0.395,0.394l0,1.579l-0.789,0l0,2.369l2.368,0l0,-2.369l-0.789,0Zm-3.158,-1.579c0,-0.217 -0.178,-0.394 -0.395,-0.394c-0.217,0 -0.395,0.177 -0.395,0.394l0,1.579l-0.789,0l0,2.369l2.368,0l0,-2.369l-0.789,0l0,-1.579Zm1.579,5.527c0,0.513 0.331,0.947 0.789,1.113l0,1.65l0.79,0l0,-1.65c0.458,-0.162 0.789,-0.596 0.789,-1.113l0,-0.789l-2.368,0l0,0.789Z" style="fill:#fff;fill-rule:nonzero;"/></svg>