<?xml version="1.0" encoding="utf-8"?>
<!-- Generator: Adobe Illustrator 15.0.0, SVG Export Plug-In . SVG Version: 6.00 Build 0)  -->
<!DOCTYPE svg PUBLIC "-//W3C//DTD SVG 1.1//EN" "http://www.w3.org/Graphics/SVG/1.1/DTD/svg11.dtd">
<svg version="1.1" id="Layer_1" xmlns="http://www.w3.org/2000/svg" xmlns:xlink="http://www.w3.org/1999/xlink" x="0px" y="0px"
	 width="300px" height="236.111px" viewBox="0 0 300 236.111" enable-background="new 0 0 300 236.111" xml:space="preserve">
<g>
	<g>
		<ellipse opacity="0.15" cx="150" cy="135.706" rx="37.943" ry="6.258"/>
		<rect x="108.889" y="106.152" fill="#414042" width="82.222" height="17.441"/>
		<rect x="108.889" y="12.114" fill="#414042" width="82.222" height="17.441"/>
		<rect x="129.445" fill="#414042" width="41.11" height="8.721"/>
		<rect x="129.445" y="126.985" fill="#414042" width="41.11" height="8.722"/>
		<polygon fill="#349CD7" points="158.721,79.386 141.28,61.945 141.28,97.431 129.445,97.431 129.445,106.152 170.556,106.152 
			170.556,97.431 158.721,97.431 		"/>
		<polygon fill="#349CD7" points="158.721,37.561 170.556,37.561 170.556,29.555 129.445,29.555 129.445,37.561 141.28,37.561 
			141.28,61.945 141.28,97.431 129.445,97.431 129.445,106.152 170.556,106.152 170.556,97.431 158.721,97.431 158.721,79.386 		"/>
		<polygon opacity="0.15" points="129.445,29.555 129.445,37.561 141.28,37.561 141.28,61.945 158.721,79.386 158.721,37.561 
			170.556,37.561 170.556,29.555 		"/>
		<rect x="129.445" y="126.985" opacity="0.15" width="41.11" height="8.722"/>
	</g>
	<g>
		<path fill="#349CD7" d="M0,218.704v-57.998h11.631v57.998H0z"/>
		<path fill="#349CD7" d="M18.805,218.704v-43.101h10.794l0.544,6.114c1.436-2.185,3.204-3.883,5.304-5.094
			c2.1-1.212,4.453-1.817,7.059-1.817c4.343,0,7.732,1.401,10.168,4.203s3.654,7.229,3.654,13.284v26.41H44.696v-26.431
			c0-3.087-0.538-5.276-1.613-6.567s-2.689-1.937-4.84-1.937c-1.727,0-3.247,0.326-4.561,0.979s-2.396,1.55-3.247,2.694v31.262
			H18.805z"/>
		<path fill="#349CD7" d="M59.516,183.77v-8.166h6.254v-10.556h11.632v10.556h7.249v8.166h-7.249v21.981
			c0,1.676,0.352,2.872,1.055,3.591c0.703,0.718,1.626,1.076,2.769,1.076c0.61,0,1.141-0.032,1.593-0.1
			c0.451-0.065,0.969-0.179,1.553-0.339l0.956,8.371c-1.168,0.396-2.304,0.693-3.405,0.893c-1.103,0.197-2.304,0.297-3.605,0.297
			c-4.022,0-7.118-1.102-9.29-3.306c-2.172-2.204-3.258-5.696-3.258-10.477V183.77H59.516z"/>
		<path fill="#349CD7" d="M86.725,198.389v-1.594c0-6.453,1.753-11.737,5.258-15.854c3.479-4.089,8.258-6.135,14.34-6.135
			c0.026,0,0.066,0,0.12,0c5.789,0,10.23,1.772,13.324,5.318c3.093,3.545,4.641,8.318,4.641,14.32v6.015h-25.68l-0.119,0.237
			c0.185,2.937,1.082,5.318,2.688,7.144c1.606,1.824,3.989,2.737,7.15,2.737c2.603,0,4.813-0.265,6.632-0.794
			s3.698-1.336,5.637-2.42l3.135,7.174c-1.726,1.415-4.063,2.602-7.011,3.562c-2.948,0.96-6.162,1.44-9.64,1.44
			c-6.427,0-11.446-1.972-15.058-5.915S86.725,204.603,86.725,198.389z M98.794,192.573l0.08,0.199h14.181v-0.877
			c0-2.522-0.518-4.508-1.554-5.955s-2.708-2.171-5.019-2.171c-2.337,0-4.136,0.804-5.397,2.41S99.06,189.918,98.794,192.573z"/>
		<path fill="#349CD7" d="M129.389,218.704v-43.101h10.794l0.544,6.114c1.435-2.185,3.204-3.883,5.303-5.094
			c2.1-1.212,4.453-1.817,7.059-1.817c4.342,0,7.731,1.401,10.168,4.203c2.436,2.802,3.653,7.229,3.653,13.284v26.41H155.28v-26.431
			c0-3.087-0.538-5.276-1.613-6.567s-2.688-1.937-4.84-1.937c-1.727,0-3.247,0.326-4.561,0.979s-2.396,1.55-3.246,2.694v31.262
			H129.389z"/>
		<path fill="#414042" d="M172.012,197.791v-1.195c0-6.319,1.732-11.531,5.198-15.635c3.466-4.103,8.371-6.154,14.719-6.154
			c5.294,0,9.559,1.514,12.794,4.538c3.128,2.92,4.692,6.741,4.692,11.465c0,0.162,0,0.323,0,0.485l-0.08,0.242H198.62
			c0-2.23-0.591-4.083-1.772-5.557s-2.821-2.211-4.919-2.211c-3.001,0-5.133,1.2-6.394,3.6c-1.262,2.4-1.893,5.47-1.893,9.208v1.193
			c0,3.818,0.631,6.907,1.893,9.268c1.261,2.36,3.419,3.54,6.473,3.54c2.019,0,3.625-0.601,4.82-1.802
			c1.194-1.201,1.792-2.805,1.792-4.811h10.715l0.08,0.227c0,0.127,0,0.254,0,0.379c0,4.151-1.625,7.664-4.875,10.538
			c-3.357,2.928-7.513,4.404-12.468,4.431c-6.395,0-11.336-2.037-14.825-6.114C173.756,209.35,172.012,204.139,172.012,197.791z"/>
		<path fill="#414042" d="M213.402,165.287v-8.645h11.631v8.645H213.402z M213.402,218.704v-43.101h11.631v43.101H213.402z"/>
		<path fill="#414042" d="M230.689,183.77v-8.166h6.254v-10.556h11.632v10.556h7.25v8.166h-7.25v21.981
			c0,1.676,0.352,2.872,1.056,3.591c0.703,0.718,1.626,1.076,2.769,1.076c0.61,0,1.141-0.032,1.593-0.1
			c0.451-0.065,0.969-0.179,1.554-0.339l0.956,8.371c-1.169,0.396-2.305,0.693-3.405,0.893c-1.104,0.197-2.305,0.297-3.605,0.297
			c-4.021,0-7.118-1.102-9.29-3.306s-3.258-5.696-3.258-10.477V183.77H230.689z"/>
		<path fill="#414042" d="M258.732,175.604h12.508l7.289,25.035l0.479,2.392h0.238l8.246-27.427H300l-17.487,49.554
			c-1.222,3.08-2.882,5.676-4.979,7.787s-5.244,3.167-9.44,3.167c-0.982,0-1.892-0.08-2.729-0.237
			c-0.836-0.16-1.853-0.385-3.047-0.676l1.354-8.448c0.345,0.053,0.717,0.106,1.115,0.159s0.757,0.08,1.075,0.08
			c1.912,0,3.386-0.472,4.422-1.415c1.035-0.943,1.832-2.12,2.39-3.528l1.354-3.349L258.732,175.604z"/>
	</g>
</g>
</svg>
