<?xml version="1.0" encoding="UTF-8" standalone="no"?><!DOCTYPE svg PUBLIC "-//W3C//DTD SVG 1.1//EN" "http://www.w3.org/Graphics/SVG/1.1/DTD/svg11.dtd"><svg width="100%" height="100%" viewBox="0 0 121 74" version="1.1" xmlns="http://www.w3.org/2000/svg" xmlns:xlink="http://www.w3.org/1999/xlink" xml:space="preserve" xmlns:serif="http://www.serif.com/" style="fill-rule:evenodd;clip-rule:evenodd;stroke-linejoin:round;stroke-miterlimit:1.41421;"><g><path d="M19.678,0.196c5.566,0 10.009,1.578 13.33,4.736c3.32,3.157 4.98,7.454 4.98,12.891c0,3.352 -0.773,6.388 -2.319,9.106c-1.546,2.718 -4.175,5.314 -7.886,7.788c4.167,2.962 7.129,5.998 8.887,9.107c1.758,3.108 2.637,6.502 2.637,10.18c0,5.827 -1.791,10.531 -5.371,14.112c-3.581,3.58 -8.334,5.371 -14.258,5.371c-6.153,0 -10.97,-1.652 -14.453,-4.956c-3.483,-3.304 -5.225,-8.016 -5.225,-14.136c0,-4.102 0.871,-7.723 2.612,-10.864c1.742,-3.142 4.436,-5.884 8.081,-8.228c-3.385,-2.702 -5.802,-5.428 -7.251,-8.179c-1.448,-2.75 -2.172,-5.851 -2.172,-9.301c0,-5.339 1.717,-9.611 5.151,-12.818c3.434,-3.206 7.853,-4.809 13.257,-4.809Zm-7.08,53.515c0,2.865 0.594,5.143 1.782,6.836c1.188,1.693 2.889,2.539 5.102,2.539c2.409,0 4.208,-0.846 5.396,-2.539c1.188,-1.693 1.782,-3.971 1.782,-6.836c0,-2.051 -0.472,-3.987 -1.416,-5.81c-0.944,-1.823 -2.767,-3.923 -5.469,-6.299l-0.683,-0.684c-2.116,1.563 -3.727,3.345 -4.834,5.347c-1.107,2.002 -1.66,4.484 -1.66,7.446Zm6.982,-43.213c-1.855,0 -3.255,0.676 -4.199,2.027c-0.944,1.351 -1.416,3.279 -1.416,5.786c0,2.148 0.39,4.02 1.172,5.615c0.781,1.595 2.295,3.288 4.541,5.078c2.148,-1.66 3.621,-3.32 4.419,-4.98c0.797,-1.66 1.196,-3.565 1.196,-5.713c0,-5.208 -1.904,-7.813 -5.713,-7.813Z" style="fill:#fff;fill-rule:nonzero;"/><path d="M83.449,36.817c0,12.923 -1.554,22.265 -4.663,28.027c-3.109,5.762 -8.113,8.643 -15.015,8.643c-6.901,0 -11.857,-2.898 -14.868,-8.692c-3.011,-5.794 -4.516,-15.12 -4.516,-27.978c0,-12.891 1.578,-22.25 4.736,-28.076c3.158,-5.827 8.106,-8.741 14.844,-8.741c6.868,0 11.832,2.849 14.892,8.545c3.06,5.697 4.59,15.121 4.59,28.272Zm-25.781,0c0,9.993 0.431,16.723 1.294,20.19c0.863,3.467 2.498,5.2 4.907,5.2c1.628,0 2.889,-0.748 3.784,-2.246c0.896,-1.497 1.538,-3.979 1.929,-7.446c0.391,-3.467 0.586,-8.7 0.586,-15.698c0,-9.831 -0.456,-16.537 -1.367,-20.117c-0.912,-3.581 -2.556,-5.372 -4.932,-5.372c-2.409,0 -4.044,1.783 -4.907,5.347c-0.863,3.565 -1.294,10.278 -1.294,20.142Z" style="fill:#fff;fill-rule:nonzero;"/><path d="M91.25,11.206c0,2.262 0.146,3.91 0.439,4.944c0.293,1.033 0.781,1.55 1.465,1.55c0.684,0 1.18,-0.517 1.489,-1.55c0.309,-1.034 0.464,-2.682 0.464,-4.944c0,-2.262 -0.159,-3.91 -0.476,-4.944c-0.317,-1.033 -0.81,-1.55 -1.477,-1.55c-0.684,0 -1.172,0.517 -1.465,1.55c-0.293,1.034 -0.439,2.682 -0.439,4.944Zm9.057,-0.049c0,3.679 -0.614,6.474 -1.843,8.386c-1.229,1.913 -3.015,2.869 -5.359,2.869c-2.425,0 -4.207,-0.936 -5.347,-2.808c-1.139,-1.871 -1.709,-4.654 -1.709,-8.349c0,-7.503 2.352,-11.255 7.056,-11.255c4.802,0 7.202,3.719 7.202,11.157Zm11.548,14.307c0,2.262 0.147,3.91 0.44,4.944c0.293,1.033 0.781,1.55 1.464,1.55c0.684,0 1.18,-0.517 1.49,-1.55c0.309,-1.034 0.464,-2.682 0.464,-4.944c0,-2.263 -0.159,-3.906 -0.477,-4.932c-0.317,-1.025 -0.809,-1.538 -1.477,-1.538c-0.667,0 -1.151,0.513 -1.452,1.538c-0.301,1.026 -0.452,2.669 -0.452,4.932Zm9.058,-0.049c0,3.678 -0.619,6.47 -1.856,8.374c-1.237,1.904 -3.019,2.857 -5.346,2.857c-2.442,0 -4.228,-0.932 -5.359,-2.796c-1.131,-1.864 -1.697,-4.643 -1.697,-8.337c0,-3.646 0.582,-6.433 1.746,-8.362c1.163,-1.929 2.933,-2.893 5.31,-2.893c4.801,0 7.202,3.719 7.202,11.157Zm-7.544,-24.902l-14.746,35.693l-5.054,0l14.697,-35.693l5.103,0Z" style="fill:#fff;fill-rule:nonzero;"/></g></svg>