<?xml version="1.0" encoding="utf-8"?>
<!-- Generator: Adobe Illustrator 15.0.0, SVG Export Plug-In . SVG Version: 6.00 Build 0)  -->
<!DOCTYPE svg PUBLIC "-//W3C//DTD SVG 1.1//EN" "http://www.w3.org/Graphics/SVG/1.1/DTD/svg11.dtd">
<svg version="1.1" id="Layer_1" xmlns="http://www.w3.org/2000/svg" xmlns:xlink="http://www.w3.org/1999/xlink" x="0px" y="0px"
	 width="21.493px" height="25.392px" viewBox="65.239 338.44 21.493 25.392" enable-background="new 65.239 338.44 21.493 25.392"
	 xml:space="preserve">
<path fill="#F6F6FF" d="M66.805,346.653c-0.865,0-1.566,0.702-1.567,1.567l0.001,6.563c0,0.867,0.702,1.567,1.567,1.567
	c0.866,0,1.567-0.7,1.567-1.567v-6.563C68.374,347.355,67.671,346.653,66.805,346.653 M79.444,340.759l1.094-1.997
	c0.059-0.104,0.02-0.237-0.086-0.297c-0.106-0.056-0.238-0.018-0.295,0.087l-1.104,2.019c-0.93-0.413-1.97-0.645-3.071-0.645
	c-1.098,0-2.138,0.23-3.063,0.642l-1.106-2.013c-0.058-0.106-0.189-0.145-0.294-0.087c-0.106,0.058-0.146,0.19-0.086,0.295
	l1.095,1.996c-2.15,1.108-3.603,3.22-3.602,5.645l14.117-0.001C83.041,343.978,81.59,341.872,79.444,340.759 M72.77,343.846
	c-0.325-0.001-0.59-0.265-0.59-0.592c0-0.324,0.264-0.592,0.59-0.592c0.327,0,0.592,0.268,0.592,0.592
	C73.363,343.581,73.098,343.846,72.77,343.846 M79.198,343.845c-0.326,0-0.592-0.265-0.592-0.592
	c0.001-0.324,0.265-0.592,0.592-0.593c0.325,0.001,0.591,0.269,0.591,0.593C79.79,343.581,79.524,343.845,79.198,343.845
	 M68.981,346.949l0.002,10.171c0,0.924,0.748,1.671,1.672,1.672h1.139l0.001,3.473c0,0.864,0.702,1.567,1.566,1.567
	c0.866,0,1.567-0.703,1.568-1.568l-0.001-3.472l2.116-0.001l0.001,3.473c0,0.864,0.703,1.568,1.566,1.566
	c0.866,0.001,1.568-0.702,1.567-1.568l0-3.471l1.142-0.001c0.923,0,1.673-0.747,1.673-1.672l-0.002-10.172L68.981,346.949z
	 M86.731,348.218c0-0.866-0.702-1.567-1.567-1.567c-0.866-0.001-1.567,0.702-1.567,1.567l0.001,6.563
	c0,0.865,0.701,1.566,1.567,1.566c0.865,0,1.566-0.701,1.566-1.567L86.731,348.218z"/>
</svg>
