<?xml version="1.0" encoding="utf-8"?>
<!-- Generator: Adobe Illustrator 15.0.0, SVG Export Plug-In . SVG Version: 6.00 Build 0)  -->
<!DOCTYPE svg PUBLIC "-//W3C//DTD SVG 1.1//EN" "http://www.w3.org/Graphics/SVG/1.1/DTD/svg11.dtd">
<svg version="1.1" id="Layer_1" xmlns="http://www.w3.org/2000/svg" xmlns:xlink="http://www.w3.org/1999/xlink" x="0px" y="0px"
	 width="46.8px" height="46.8px" viewBox="0 0 46.8 46.8" enable-background="new 0 0 46.8 46.8" xml:space="preserve">
<g>
	
		<image overflow="visible" opacity="0.25" width="205" height="205" xlink:href="38FA5369.png"  transform="matrix(0.24 0 0 0.24 -0.0996 -0.1001)">
	</image>
	<g>
		<g>
			<circle fill="#647082" cx="23.4" cy="23.4" r="21.5"/>
		</g>
	</g>
</g>
<g id="Icons">
	
		<image overflow="visible" opacity="0.25" width="111" height="111" xlink:href="38FA536B.png"  transform="matrix(0.24 0 0 0.24 11.1929 11.1938)">
	</image>
	<g>
		<g>
			<g transform="translate(-500.000000, -200.000000)">
				<g transform="translate(200.000000, 200.000000)">
					<path fill="#F6F6FB" d="M331.055,31.693h-15.31c-0.353,0-0.638-0.285-0.638-0.639v-9.568h2.552
						c-0.332,0.479-0.445,1.37-0.445,1.937c0,3.417,2.786,6.196,6.211,6.196c3.423,0,6.208-2.779,6.208-6.196
						c0-0.566-0.08-1.444-0.492-1.937h2.551v9.568C331.692,31.408,331.407,31.693,331.055,31.693 M323.425,19.508
						c2.166,0,3.926,1.754,3.926,3.915c0,2.165-1.76,3.917-3.926,3.917c-2.17,0-3.926-1.752-3.926-3.917
						C319.5,21.262,321.255,19.508,323.425,19.508 M328.502,15.745h1.916c0.352,0,0.637,0.286,0.637,0.639v1.914
						c0,0.353-0.285,0.638-0.637,0.638h-1.916c-0.352,0-0.637-0.285-0.637-0.638v-1.914
						C327.866,16.031,328.151,15.745,328.502,15.745 M331.18,13.194h-15.56c-1.339,0-2.428,1.084-2.428,2.421v15.57
						c0,1.338,1.089,2.422,2.428,2.422h15.56c1.339,0,2.427-1.084,2.427-2.422v-15.57C333.607,14.278,332.519,13.194,331.18,13.194"
						/>
				</g>
			</g>
		</g>
	</g>
</g>
</svg>
