<?xml version="1.0" encoding="utf-8"?>
<!-- Generator: Adobe Illustrator 15.0.0, SVG Export Plug-In . SVG Version: 6.00 Build 0)  -->
<!DOCTYPE svg PUBLIC "-//W3C//DTD SVG 1.1//EN" "http://www.w3.org/Graphics/SVG/1.1/DTD/svg11.dtd">
<svg version="1.1" id="Layer_1" xmlns="http://www.w3.org/2000/svg" xmlns:xlink="http://www.w3.org/1999/xlink" x="0px" y="0px"
	 width="46.8px" height="46.8px" viewBox="0 0 46.8 46.8" enable-background="new 0 0 46.8 46.8" xml:space="preserve">
<g>
	
		<image overflow="visible" opacity="0.25" width="205" height="205" xlink:href="5429E3F5.png"  transform="matrix(0.24 0 0 0.24 -0.0996 -0.1001)">
	</image>
	<g>
		<g>
			<circle fill="#349CD7" cx="23.4" cy="23.4" r="21.5"/>
		</g>
	</g>
</g>
<g id="Icons_1_">
	
		<image overflow="visible" opacity="0.25" width="118" height="103" xlink:href="5429E3F7.png"  transform="matrix(0.24 0 0 0.24 11.2964 12.147)">
	</image>
	<g>
		<g>
			<g transform="translate(-300.000000, -204.000000)">
				<g transform="translate(200.000000, 200.000000)">
					<path fill="#F6F6FB" d="M135.503,20.337c-0.816,0.372-1.693,0.622-2.617,0.735
						c0.941-0.578,1.664-1.494,2.004-2.584c-0.881,0.535-1.855,0.924-2.895,1.132c-0.83-0.907-2.014-1.474-3.324-1.474
						c-2.516,0-4.555,2.092-4.555,4.672c0,0.365,0.039,0.721,0.117,1.063c-3.787-0.194-7.143-2.053-9.391-4.883
						c-0.395,0.693-0.619,1.496-0.619,2.352c0,1.62,0.805,3.051,2.027,3.889c-0.744-0.022-1.449-0.235-2.064-0.583v0.058
						c0,2.264,1.572,4.152,3.656,4.58c-0.381,0.109-0.785,0.166-1.199,0.166c-0.295,0-0.58-0.028-0.859-0.084
						c0.58,1.855,2.262,3.207,4.258,3.244c-1.559,1.252-3.525,2-5.66,2c-0.367,0-0.73-0.021-1.086-0.064
						c2.016,1.323,4.412,2.098,6.984,2.098c8.381,0,12.963-7.118,12.963-13.293c0-0.202-0.004-0.406-0.012-0.604
						C134.123,22.096,134.894,21.274,135.503,20.337"/>
				</g>
			</g>
		</g>
	</g>
</g>
</svg>
