<?xml version="1.0" encoding="utf-8"?>
<!-- Generator: Adobe Illustrator 15.0.0, SVG Export Plug-In . SVG Version: 6.00 Build 0)  -->
<!DOCTYPE svg PUBLIC "-//W3C//DTD SVG 1.1//EN" "http://www.w3.org/Graphics/SVG/1.1/DTD/svg11.dtd">
<svg version="1.1" id="Layer_1" xmlns="http://www.w3.org/2000/svg" xmlns:xlink="http://www.w3.org/1999/xlink" x="0px" y="0px"
	 width="46.8px" height="46.8px" viewBox="0 0 46.8 46.8" enable-background="new 0 0 46.8 46.8" xml:space="preserve">
<g>
	
		<image overflow="visible" opacity="0.25" width="205" height="205" xlink:href="D5C34904.png"  transform="matrix(0.24 0 0 0.24 -0.0996 -0.1001)">
	</image>
	<g>
		<g>
			<circle fill="#349CD7" cx="23.4" cy="23.4" r="21.5"/>
			<g>
				<g transform="translate(-200.000000, -408.000000)">
					<g transform="translate(200.000000, 400.000000)">
						<path fill="#F6F6FB" d="M21.144,34.254l-0.001-6.184l5.905,3.103L21.144,34.254z M34.109,27
							c0,0-0.213-1.518-0.869-2.186c-0.83-0.876-1.762-0.88-2.189-0.931c-3.059-0.224-7.645-0.224-7.645-0.224h-0.01
							c0,0-4.587,0-7.646,0.224c-0.428,0.051-1.358,0.055-2.19,0.931C12.905,25.482,12.691,27,12.691,27s-0.218,1.781-0.218,3.562
							v1.67c0,1.781,0.218,3.563,0.218,3.563s0.213,1.517,0.869,2.185c0.832,0.877,1.923,0.85,2.41,0.94
							c1.749,0.169,7.431,0.222,7.431,0.222s4.591-0.008,7.65-0.229c0.428-0.052,1.359-0.056,2.189-0.933
							c0.656-0.668,0.869-2.185,0.869-2.185s0.219-1.781,0.219-3.563v-1.67C34.328,28.781,34.109,27,34.109,27L34.109,27z"/>
					</g>
				</g>
			</g>
		</g>
	</g>
</g>
</svg>
