<?xml version="1.0" encoding="utf-8"?>
<!-- Generator: Adobe Illustrator 15.0.0, SVG Export Plug-In . SVG Version: 6.00 Build 0)  -->
<!DOCTYPE svg PUBLIC "-//W3C//DTD SVG 1.1//EN" "http://www.w3.org/Graphics/SVG/1.1/DTD/svg11.dtd">
<svg version="1.1" id="Layer_1" xmlns="http://www.w3.org/2000/svg" xmlns:xlink="http://www.w3.org/1999/xlink" x="0px" y="0px"
	 width="121.7px" height="48.2px" viewBox="0 0 121.7 48.2" style="enable-background:new 0 0 121.7 48.2;" xml:space="preserve">
<style type="text/css">
<![CDATA[
	.st0{fill:#FFFFFF;}
	.st1{fill:#45B29D;}
]]>
</style>
<g>
	
		<image style="overflow:visible;opacity:0.25;enable-background:new    ;" width="125" height="53" xlink:href="CF32F92B.png"  transform="matrix(1 0 0 1 0.137 -2.7598)">
	</image>
	<g>
		<path class="st1" d="M120.9,42.6c0,1.6-1.3,3-3,3H5.2c-1.6,0-3-1.4-3-3V3.2c0-1.6,1.4-3,3-3h112.7c1.7,0,3,1.4,3,3V42.6z"/>
	</g>
</g>
<g>
	<path class="st0" d="M40.2,28v-8.5h2.9c1,0,1.9,0.3,2.6,1s1,1.5,1,2.6v1.4c0,1-0.3,1.9-1,2.6s-1.5,1-2.6,1H40.2z M41.9,20.8v5.9H43
		c0.6,0,1.1-0.2,1.4-0.6c0.3-0.4,0.5-1,0.5-1.6V23c0-0.7-0.2-1.2-0.5-1.6s-0.8-0.6-1.4-0.6H41.9z"/>
	<path class="st0" d="M54.9,24.5c0,1-0.3,1.9-1,2.6s-1.5,1-2.6,1c-1.1,0-1.9-0.3-2.6-1s-1-1.5-1-2.6V23c0-1,0.3-1.9,1-2.6
		s1.5-1,2.6-1c1.1,0,1.9,0.3,2.6,1s1,1.5,1,2.6V24.5z M53.2,23c0-0.7-0.2-1.2-0.5-1.6c-0.3-0.4-0.8-0.6-1.4-0.6s-1,0.2-1.4,0.6
		c-0.3,0.4-0.5,1-0.5,1.6v1.5c0,0.7,0.2,1.2,0.5,1.7c0.3,0.4,0.8,0.6,1.4,0.6c0.6,0,1-0.2,1.4-0.6c0.3-0.4,0.5-1,0.5-1.7V23z"/>
	<path class="st0" d="M63.1,28h-1.7L58,22.2l0,0V28h-1.7v-8.5h1.7l3.4,5.8l0,0v-5.8h1.7V28z"/>
	<path class="st0" d="M69.3,26.2h-3L65.7,28H64l2.9-8.5h1.8l2.9,8.5h-1.7L69.3,26.2z M66.7,24.8h2.2l-1.1-3.4h0L66.7,24.8z"/>
	<path class="st0" d="M78.3,20.8h-2.4V28h-1.7v-7.2h-2.4v-1.3h6.5V20.8z"/>
	<path class="st0" d="M84.5,24.3H81v2.4h4.1V28h-5.8v-8.5h5.8v1.3H81v2.1h3.5V24.3z"/>
</g>
</svg>
