<?xml version="1.0" encoding="utf-8"?>
<!-- Generator: Adobe Illustrator 15.0.0, SVG Export Plug-In . SVG Version: 6.00 Build 0)  -->
<!DOCTYPE svg PUBLIC "-//W3C//DTD SVG 1.1//EN" "http://www.w3.org/Graphics/SVG/1.1/DTD/svg11.dtd">
<svg version="1.1" id="Layer_1" xmlns="http://www.w3.org/2000/svg" xmlns:xlink="http://www.w3.org/1999/xlink" x="0px" y="0px"
	 width="610.4px" height="379.4px" viewBox="0 0 610.4 379.4" style="enable-background:new 0 0 610.4 379.4;" xml:space="preserve"
	>
<style type="text/css">
<![CDATA[
	.st0{fill:#657183;}
	.st1{fill:#424143;}
]]>
</style>
<g>
	<path class="st1" d="M406.9,158.1c0.5,16.4,1.3,62.3-3,86h43.7c1.3-1,2.1-2,2.5-3c0.9-2.3,1.2-6.5,1.2-11.3
		c8.1,6.1,19,11.9,32.1,12.5c0.7,0,1.4,0.1,2.2,0.1c11.8,0,23.4-4.4,34.5-12.9c0.1,4.9,0.4,9.3,1.3,11.7c0.4,1,1.2,2,2.5,3h51.7
		c-14.5-21.9-10.9-88.1-10.9-88.1c0.2-1.2,0.4-2.5,0.6-3.7c0,0,0,0,0,0c0,0,23.3-78.6-38.5-106.8c0,0-11.1-2.6-19.7-0.6
		c-5.9-1.4-11.6-2.4-17-2.4c-1.6,0-3.1,0.1-4.5,0.2c-1.5-0.1-3-0.2-4.5-0.2c-6.8,0-14,1.2-21.5,3.4l-0.3,0.1l-0.3,0.1
		c-20,7-54,33.8-48.6,86.9c-0.2,0.2-0.3,0.4-0.4,0.5C404.4,140.5,405.2,150.1,406.9,158.1z M421,141.7c3.4,0.2,6.6,0.2,9.9,0.1
		l0,0.1l4.2,21.9l4.5-22.7c4.6-0.6,9.1-1.4,13.5-2.5c18.9-4.7,35.5-13.8,48.1-22.4c9.3-6.3,16.3-12.3,20.4-16.1
		c2.4,6.7,9.1,23.4,20.3,36.4V152l3.5-11.7c0.1,0.1,0.2,0.2,0.3,0.3c-0.1,0.2-0.1,0.4-0.1,0.6c0,0,0.2-0.1,0.5-0.2
		c1.7,1.6,3.5,3.1,5.4,4.5c0.3,2.4,0,6-1.2,11.4c-4.2,17.9-11.3,19-12.9,19c-0.2,0-0.4,0-0.4,0s-0.9,16.8-16.4,35c0,0.1,0,0.3,0,0.4
		c-12,12.3-24.3,18.2-36.7,17.7c-15.3-0.6-27.4-11.1-33.5-17.4c0-0.1,0-0.2,0-0.3C434.9,193.1,434,176,434,176s-0.1,0-0.4,0
		c-0.9,0-3.5-0.4-6.3-3.7l-3.3-5.1c-1.2-2.6-2.4-5.9-3.4-10.2C418.4,147.2,419.4,143.3,421,141.7z"/>
	<path class="st1" d="M609.3,298.7c-11.4-30-30.6-37-46.2-39.8c-12.9-2.3-29.1-7.1-34.8-10.3l-0.3,0.3c0.1,0.8,0.2,1.6,0.2,2.4
		c0,14.6-19.6,26.4-43.8,26.4s-43.8-11.8-43.8-26.4c0-0.8,0.1-1.7,0.2-2.5l-0.2-0.2c-5.7,3.1-21.8,7.9-34.8,10.3
		c-15.5,2.8-34.8,9.8-46.1,39.8c-1.9,5.1-1.2,10.6,1.9,15.2c11.7,16.9,73.3,20.5,122.8,20.5c49.6,0,111.2-3.6,122.8-20.5
		C610.5,309.3,611.2,303.8,609.3,298.7z"/>
</g>
<path class="st1" d="M54.9,165c3.1,13.2,8.3,20,13.2,23.5c1.6,6.5,5.3,16,12.8,26.2l0,0c0,0,0.1,0.1,0.1,0.1
	c0.4,0.6,0.7,1.1,1.2,1.7c0,0,5.4,6.3,13,12.1c3.7,2.7,7.9,5.4,12.8,7.4c0,0,0.1,0,0.1,0c1.6,0.7,3.3,1.1,5,1.7
	c2.5,0.6,4.8,1.1,7,1.5c1.1,0.2,2.1,0.4,3.3,0.5c0.4,0.1,0.9,0.1,1.3,0.2c0.6,0,1.2,0,1.8,0c10.8,0,21.3-4,31.4-11.7
	c0,0,10.5-9.7,15-15.2c6.7-9.5,10.1-18.4,11.7-24.5c5-3.5,10.2-10.3,13.2-23.5c1.8-7.6,3.1-17.3-2.4-24.2c-0.1-0.2-0.3-0.3-0.4-0.5
	c4.9-48.4-26.1-72.9-44.3-79.2l-0.3-0.1l-0.3-0.1c-6.9-2.1-13.5-3.1-19.6-3.1c-1.4,0-2.8,0.1-4.1,0.2c-1.3-0.1-2.7-0.2-4.1-0.2
	c-6.2,0-12.8,1.1-19.6,3.1l-0.3,0.1l-0.3,0.1c-18.2,6.4-49.2,30.8-44.3,79.2c-0.1,0.2-0.3,0.3-0.4,0.5
	C51.8,147.7,53.1,157.4,54.9,165z M69.5,147.4c1.1,0,1.9,0.4,1.9,0.4c0-0.1,0-0.2,0-0.3l0.4,0.4l5.1,16c0,0-2.2-29.1,9.5-42.2
	c5,4.1,14.2,10.7,24.8,12.6c0,0-3.4-6.2-6.2-11.8l-0.5-0.5c9.7,8.2,28.7,21.9,50.6,25.9c0,0-6.9-12.7-12.7-24.2
	c0,0,18.4,20.7,34.5,24.2c0,0,2.5-3.2,5.3-8.4c-0.3,2.8-0.6,5.5-1.2,8.5c0,0,0.9-0.4,1.9-0.4c2.3,0,5.4,2,2.4,14.7
	c-3.8,16.4-10.3,17.4-11.8,17.4c-0.2,0-0.3,0-0.3,0s-0.8,15.3-14.9,31.9c0,0.1,0,0.3,0,0.4c-11,11.2-22.2,16.6-33.4,16.2
	c-14-0.6-25-10.1-30.5-15.9c0-0.1,0-0.2,0-0.3c-14.4-16.7-15.2-32.3-15.2-32.3s-0.1,0-0.3,0c-1.5,0-8-1-11.8-17.4
	C64.1,149.5,67.2,147.4,69.5,147.4z"/>
<path class="st1" d="M251.5,283c-11.4-30.1-30.8-37.2-46.3-39.9c-13-2.3-29.2-7.2-34.9-10.3l-0.3,0.3c0.1,0.8,0.2,1.6,0.2,2.4
	c0,14.7-19.7,26.5-43.9,26.5s-43.9-11.9-43.9-26.5c0-0.8,0.1-1.7,0.2-2.5l-0.2-0.2c-5.8,3.1-21.9,8-34.9,10.3
	c-15.6,2.8-34.9,9.8-46.3,39.9c-1.9,5.1-1.2,10.7,1.9,15.2c11.7,17,73.5,20.5,123.3,20.5c49.8,0,111.6-3.6,123.3-20.5
	C252.7,293.7,253.4,288.1,251.5,283z"/>
<path class="st0" d="M196.9,155.9c4.4,19.2,12,29.1,19.2,34.2c2.4,9.4,7.7,23.3,18.7,38.2l0,0c0,0,0.1,0.1,0.1,0.2
	c0.6,0.9,1.1,1.7,1.7,2.5c0,0,7.9,9.1,18.9,17.6c5.3,4,11.5,7.8,18.5,10.8c0.1,0,0.1,0,0.2,0.1c2.3,1,4.8,1.6,7.3,2.4
	c3.6,0.9,7,1.7,10.1,2.2c1.6,0.2,3.1,0.6,4.8,0.7c0.6,0.1,1.2,0.2,1.8,0.2c0.9,0,1.7,0.1,2.6,0.1c15.7,0,31-5.8,45.7-17.1
	c0,0,15.2-14.1,21.8-22.2c9.7-13.8,14.7-26.7,17-35.6c7.2-5.1,14.8-15,19.2-34.2c2.6-11.1,4.5-25.1-3.4-35.2
	c-0.2-0.2-0.4-0.5-0.6-0.7C407.6,49.6,362.5,14,336,4.8l-0.4-0.1l-0.4-0.1c-10-3-19.6-4.5-28.5-4.5c-2.1,0-4.1,0.1-6,0.2
	c-1.9-0.2-3.9-0.2-5.9-0.2c-9,0-18.6,1.5-28.6,4.5l-0.4,0.1l-0.4,0.1C238.9,14,193.8,49.6,201,120c-0.2,0.2-0.4,0.5-0.6,0.7
	C192.4,130.7,194.4,144.8,196.9,155.9z M386.8,151.7c-5.5,23.8-14.9,25.2-17.2,25.2c-0.3,0-0.5,0-0.5,0s-1.2,22.3-21.7,46.3
	c0,0.2,0,0.4,0,0.6c-16,16.3-32.3,24.1-48.6,23.5c-20.3-0.8-36.4-14.7-44.3-23.1c0-0.1,0-0.3,0-0.4c-20.9-24.3-22.2-46.9-22.2-46.9
	s-0.2,0-0.5,0c-2.2,0-11.6-1.5-17.2-25.2c-4.3-18.5,0.2-21.4,3.5-21.4c1.5,0,2.8,0.6,2.8,0.6c0-0.2,0-0.3-0.1-0.5l0.7,0.6l7.5,23.2
	c0,0-5-65.3,30.1-70.3c0,0,37.3,38.5,83.7,46.8c0,0-10-18.4-18.4-35.1c0,0,26.8,30.1,50.2,35.1c0,0,3.6-4.7,7.6-12.3
	c-0.4,4-0.9,8-1.7,12.3c0,0,1.3-0.6,2.8-0.6C386.6,130.3,391.1,133.2,386.8,151.7z"/>
<path class="st0" d="M483,327.4c-16.6-43.8-44.7-54-67.4-58.1c-18.9-3.4-42.4-10.4-50.8-15l-57.9,46.3h-12.4L237,254.4
	c-8.4,4.5-31.8,11.6-50.7,15c-22.6,4-50.8,14.3-67.4,58.1c-2.8,7.4-1.8,15.5,2.7,22.1c17.1,24.7,106.9,29.9,179.3,29.9
	c72.4,0,162.3-5.2,179.3-29.9C484.8,342.9,485.8,334.9,483,327.4z"/>
</svg>
