<?xml version="1.0" encoding="utf-8"?>
<!-- Generator: Adobe Illustrator 15.0.0, SVG Export Plug-In . SVG Version: 6.00 Build 0)  -->
<!DOCTYPE svg PUBLIC "-//W3C//DTD SVG 1.1//EN" "http://www.w3.org/Graphics/SVG/1.1/DTD/svg11.dtd">
<svg version="1.1" id="Layer_1" xmlns="http://www.w3.org/2000/svg" xmlns:xlink="http://www.w3.org/1999/xlink" x="0px" y="0px"
	 width="625.5px" height="372px" viewBox="0 0 625.5 372" style="enable-background:new 0 0 625.5 372;" xml:space="preserve">
<style type="text/css">
<![CDATA[
	.st0{fill-rule:evenodd;clip-rule:evenodd;fill:#424143;}
	.st1{fill-rule:evenodd;clip-rule:evenodd;fill:#F6F6FB;}
	.st2{fill-rule:evenodd;clip-rule:evenodd;fill:#F6F6FB;stroke:#359DD7;stroke-width:20;stroke-miterlimit:10;}
]]>
</style>
<g>
	<g>
		<g>
			<rect class="st0" width="503.9" height="97.3"/>
			<g>
				<rect x="39.2" y="39.1" class="st1" width="141.9" height="16.4"/>
				<rect x="390.4" y="41.9" class="st1" width="16.4" height="16.4"/>
				<rect x="419.4" y="41.9" class="st1" width="16.4" height="16.4"/>
				<rect x="448.3" y="41.9" class="st1" width="16.4" height="16.4"/>
			</g>
		</g>
		<g>
			<rect y="115.8" class="st0" width="503.9" height="97.3"/>
			<g>
				<rect x="39.2" y="154.9" class="st1" width="141.9" height="16.4"/>
				<rect x="390.4" y="157.7" class="st1" width="16.4" height="16.4"/>
				<rect x="419.4" y="157.7" class="st1" width="16.4" height="16.4"/>
				<rect x="448.3" y="157.7" class="st1" width="16.4" height="16.4"/>
			</g>
		</g>
		<g>
			<rect y="231.7" class="st0" width="503.9" height="97.3"/>
			<g>
				<rect x="39.2" y="270.8" class="st1" width="141.9" height="16.4"/>
				<rect x="390.4" y="273.5" class="st1" width="16.4" height="16.4"/>
				<rect x="419.4" y="273.5" class="st1" width="16.4" height="16.4"/>
				<rect x="448.3" y="273.5" class="st1" width="16.4" height="16.4"/>
			</g>
		</g>
	</g>
	<path class="st2" d="M532.5,196.1c-3.2,0-6.4,0.2-9.5,0.6c-19.1-33-54.7-55.2-95.5-55.2c-57.6,0-104.9,44.2-109.8,100.6
		c-0.5,0-1.1-0.1-1.6-0.1c-33.2,0-60,26.9-60,60c0,31.6,24.5,57.5,55.6,59.8c1.4,0.1,2.7,0.2,4.1,0.2h216.5c0,0,0.1,0,0.1,0
		c0.1,0,0.1,0,0.2,0c45.8,0,82.9-37.1,82.9-82.9C615.5,233.2,578.3,196.1,532.5,196.1z"/>
</g>
</svg>
