<?xml version="1.0" encoding="utf-8"?>
<!-- Generator: Adobe Illustrator 15.0.0, SVG Export Plug-In . SVG Version: 6.00 Build 0)  -->
<!DOCTYPE svg PUBLIC "-//W3C//DTD SVG 1.1//EN" "http://www.w3.org/Graphics/SVG/1.1/DTD/svg11.dtd">
<svg version="1.1" id="Layer_1" xmlns="http://www.w3.org/2000/svg" xmlns:xlink="http://www.w3.org/1999/xlink" x="0px" y="0px"
	 width="539.9px" height="379.9px" viewBox="0 0 539.9 379.9" style="enable-background:new 0 0 539.9 379.9;" xml:space="preserve"
	>
<style type="text/css">
<![CDATA[
	.st0{fill-rule:evenodd;clip-rule:evenodd;fill:#424143;}
	.st1{fill-rule:evenodd;clip-rule:evenodd;fill:#FFFFFF;stroke:#424143;stroke-width:20;stroke-miterlimit:10;}
	.st2{fill:#359DD7;}
	.st3{fill-rule:evenodd;clip-rule:evenodd;fill:#FFFFFF;}
]]>
</style>
<g>
	<path class="st1" d="M529.9,357.9c0,6.6-5.4,12-12,12H22c-6.6,0-12-5.4-12-12V22c0-6.6,5.4-12,12-12h495.9c6.6,0,12,5.4,12,12
		V357.9z"/>
	<path class="st0" d="M529.9,73.3V22c0-6.6-5.4-12-12-12H22c-6.6,0-12,5.4-12,12v51.3H529.9z"/>
	<g>
		<circle class="st3" cx="41.7" cy="41.8" r="11.5"/>
		<circle class="st3" cx="79.4" cy="41.8" r="11.5"/>
		<circle class="st3" cx="117.1" cy="41.8" r="11.5"/>
	</g>
	<g>
		<path class="st2" d="M208.3,228.9h0.3l7.3-35.9h14.1l-14.2,55.9h-12.6l-10.4-33.2h-0.3l-10.4,33.2h-12.5L155.5,193h14.1l7.4,35.8
			h0.3l10.4-35.8h10.1L208.3,228.9z"/>
		<path class="st2" d="M288.3,228.9h0.3l7.3-35.9H310l-14.2,55.9h-12.6l-10.4-33.2h-0.3l-10.4,33.2h-12.5L235.4,193h14.1l7.4,35.8
			h0.3l10.4-35.8h10.1L288.3,228.9z"/>
		<path class="st2" d="M368.2,228.9h0.3l7.3-35.9h14.1l-14.2,55.9h-12.6l-10.4-33.2h-0.3L342,248.9h-12.5L315.3,193h14.1l7.4,35.8
			h0.3l10.4-35.8h10.1L368.2,228.9z"/>
	</g>
</g>
</svg>
