<?xml version="1.0" encoding="utf-8"?>
<!-- Generator: Adobe Illustrator 15.0.0, SVG Export Plug-In . SVG Version: 6.00 Build 0)  -->
<!DOCTYPE svg PUBLIC "-//W3C//DTD SVG 1.1//EN" "http://www.w3.org/Graphics/SVG/1.1/DTD/svg11.dtd">
<svg version="1.1" id="Layer_1" xmlns="http://www.w3.org/2000/svg" xmlns:xlink="http://www.w3.org/1999/xlink" x="0px" y="0px"
	 width="390.5px" height="680.5px" viewBox="110.9 55.9 390.5 680.5" style="enable-background:new 110.9 55.9 390.5 680.5;"
	 xml:space="preserve">
<style type="text/css">
<![CDATA[
	.st0{fill:#EF4242;}
	.st1{fill:#F6F6FB;}
	.st2{fill:#45B29D;stroke:#F6F6FB;stroke-width:10;stroke-miterlimit:10;}
	.st3{fill:#FFFFFF;}
	.st4{fill:#424143;}
	.st5{fill:#45B29D;}
]]>
</style>
<g>
	<g>
		<path class="st4" d="M501.4,711.4c0,13.8-11.2,25-25,25H135.9c-13.8,0-25-11.2-25-25V80.9c0-13.8,11.2-25,25-25h340.5
			c13.8,0,25,11.2,25,25V711.4z"/>
		<circle class="st3" cx="301.1" cy="699.8" r="21.6"/>
	</g>
	<g>
		<rect x="133.9" y="129" class="st5" width="344.4" height="534.2"/>
		<g>
			<g>
				<path class="st1" d="M196.9,249.3c0,4-1.1,7.1-3.3,9.4c-2.2,2.3-5.1,3.4-8.7,3.4s-6.5-1.1-8.6-3.4c-2.1-2.3-3.2-5.4-3.2-9.4
					v-9.6c0-4,1.1-7.1,3.2-9.4c2.1-2.3,5-3.4,8.6-3.4s6.5,1.1,8.7,3.4c2.2,2.3,3.3,5.4,3.3,9.4V249.3z M190.2,239.7
					c0-2.4-0.5-4.3-1.4-5.5c-0.9-1.2-2.2-1.9-4-1.9c-1.8,0-3.1,0.6-3.9,1.9c-0.8,1.3-1.3,3.1-1.3,5.5v9.6c0,2.5,0.4,4.3,1.3,5.6
					c0.9,1.2,2.2,1.9,3.9,1.9c1.7,0,3-0.6,3.9-1.9c0.9-1.2,1.4-3.1,1.4-5.6v-9.6H190.2z"/>
				<path class="st1" d="M201.2,261.6v-34.1h10.1c3.5,0,6.3,0.8,8.2,2.3s3,3.9,3,7c0,1.6-0.4,3.1-1.1,4.3c-0.7,1.2-1.8,2.2-3.2,2.8
					c1.8,0.4,3.1,1.3,4,2.7c0.9,1.4,1.3,3.1,1.3,4.9c0,3.3-0.9,5.7-2.8,7.4c-1.9,1.7-4.5,2.5-8,2.5h-11.5V261.6z M207.9,241.9h3.7
					c1.4,0,2.4-0.4,3.1-1.2c0.7-0.8,1.1-1.9,1.1-3.3c0-1.6-0.4-2.8-1.1-3.5c-0.7-0.7-1.9-1.1-3.4-1.1h-3.4V241.9L207.9,241.9z
					 M207.9,246.5v9.7h4.7c1.4,0,2.5-0.4,3.2-1.2c0.7-0.8,1-1.9,1-3.5s-0.3-2.9-0.9-3.8c-0.6-0.9-1.5-1.3-2.9-1.3h-5.1V246.5z"/>
				<path class="st1" d="M243,252.7c0-1.3-0.3-2.4-1-3.2s-1.9-1.5-3.6-2.3c-3.5-1.2-6.2-2.6-8-4.2c-1.8-1.6-2.7-3.8-2.7-6.6
					c0-2.8,1-5.1,3.1-6.8c2.1-1.7,4.7-2.6,7.9-2.6c3.2,0,5.9,1,7.9,2.9s3,4.4,3,7.4v0.1H243c0-1.6-0.4-2.8-1.2-3.8
					c-0.8-1-1.9-1.5-3.3-1.5c-1.3,0-2.4,0.4-3.1,1.2c-0.7,0.8-1.1,1.8-1.1,3c0,1.1,0.4,2.1,1.2,2.8c0.8,0.7,2.3,1.5,4.3,2.4
					c3.2,1.1,5.7,2.5,7.3,4.2c1.6,1.7,2.4,3.9,2.4,6.8c0,3-1,5.3-3,6.9s-4.6,2.5-7.9,2.5c-3.2,0-6.1-0.9-8.4-2.8
					c-2.3-1.9-3.5-4.6-3.5-8.2v-0.1h6.5c0,2.1,0.4,3.6,1.3,4.5c0.9,0.9,2.2,1.4,4,1.4c1.4,0,2.4-0.4,3.1-1.1
					C242.3,254.9,243,254,243,252.7z"/>
				<path class="st1" d="M273.9,232.8h-7.7v28.8h-6.7v-28.8h-7.6v-5.3h22V232.8L273.9,232.8z"/>
				<path class="st1" d="M283.8,248v13.6h-6.7v-34.1h11.1c3.4,0,6,0.9,7.9,2.7c1.9,1.8,2.9,4.2,2.9,7.4c0,1.8-0.4,3.3-1.2,4.6
					c-0.8,1.3-2,2.3-3.5,3.1c1.8,0.6,3,1.6,3.8,3c0.8,1.4,1.2,3.1,1.2,5.2v2.4c0,0.9,0.1,1.9,0.3,3c0.2,1.1,0.6,1.8,1.1,2.3v0.5
					h-6.9c-0.5-0.5-0.9-1.3-1-2.4c-0.1-1.1-0.2-2.3-0.2-3.4v-2.3c0-1.7-0.3-3-1-4c-0.7-1-1.7-1.4-3-1.4h-4.8V248z M283.8,242.7h4.5
					c1.4,0,2.4-0.4,3.1-1.2c0.7-0.8,1.1-2,1.1-3.5c0-1.6-0.4-2.8-1.1-3.7c-0.7-0.9-1.7-1.4-3.1-1.4h-4.5V242.7z"/>
				<path class="st1" d="M327.1,227.5v23.2c0,3.6-1.1,6.4-3.2,8.4c-2.1,2-4.9,3-8.4,3s-6.2-1-8.4-3c-2.2-2-3.2-4.8-3.2-8.4v-23.2
					h6.7v23.2c0,2.1,0.4,3.6,1.3,4.6c0.9,1,2.1,1.5,3.6,1.5c1.6,0,2.8-0.5,3.7-1.4c0.9-0.9,1.3-2.5,1.3-4.7v-23.2H327.1z"/>
				<path class="st1" d="M353.3,250.6l0.1,0.1c0,3.8-0.9,6.6-2.7,8.5c-1.8,1.9-4.5,2.9-8,2.9s-6.4-1.1-8.5-3.2
					c-2.1-2.1-3.2-5.2-3.2-9.2v-10.2c0-4,1-7,3.1-9.2c2.1-2.2,4.8-3.3,8.2-3.3c3.6,0,6.4,1,8.2,2.9s2.8,4.8,2.9,8.6l-0.1,0.1h-6.4
					c0.1-2.2-0.2-3.9-0.9-4.8c-0.7-0.9-1.9-1.5-3.7-1.5c-1.5,0-2.6,0.6-3.4,1.8c-0.8,1.2-1.2,2.9-1.2,5.3v10.3
					c0,2.4,0.4,4.2,1.3,5.4c0.9,1.2,2.1,1.8,3.7,1.8c1.6,0,2.7-0.5,3.4-1.4c0.7-0.9,0.9-2.5,0.8-4.8h6.4V250.6z"/>
				<path class="st1" d="M376.8,232.8h-7.7v28.8h-6.7v-28.8h-7.6v-5.3h22V232.8L376.8,232.8z"/>
				<path class="st1" d="M387,261.6h-6.6v-34.1h6.6V261.6z"/>
				<path class="st1" d="M402.8,252.9l0.3,1.3h0.1l0.3-1.2l5.7-25.5h7l-9.5,34.1h-6.9l-9.5-34.1h7L402.8,252.9z"/>
				<path class="st1" d="M437.2,246.6h-11.5v9.7h13.5v5.3H419v-34.1h20.1v5.3h-13.4v8.5h11.5V246.6z"/>
			</g>
			<g>
				<path class="st1" d="M189,293l11.3,46.3h0.3L212,293h16.1v63.1h-12.3v-18.3l1-24.5h-0.3l-12.1,42.9h-8.2l-11.9-42.6H184
					l1.1,24.2v18.3H173V293H189z"/>
				<path class="st1" d="M280,333.4c0,7.4-2,13.2-6,17.3c-4,4.2-9.4,6.2-16,6.2s-12-2.1-16-6.2c-4-4.1-6-9.9-6-17.3v-17.7
					c0-7.4,2-13.2,6-17.4c4-4.2,9.3-6.3,16-6.3c6.6,0,12,2.1,16,6.3c4,4.2,6.1,10,6.1,17.4v17.7H280z M267.7,315.6
					c0-4.5-0.8-7.9-2.5-10.2c-1.7-2.3-4.1-3.5-7.3-3.5c-3.2,0-5.7,1.1-7.3,3.4c-1.6,2.3-2.4,5.7-2.4,10.3v17.8c0,4.6,0.8,8,2.5,10.3
					c1.7,2.3,4.1,3.4,7.3,3.4s5.6-1.1,7.3-3.4c1.7-2.3,2.5-5.7,2.5-10.3L267.7,315.6L267.7,315.6z"/>
				<path class="st1" d="M288,356.1V293h18.6c6.5,0,11.6,1.4,15.2,4.3c3.6,2.9,5.5,7.2,5.5,12.9c0,3-0.7,5.7-2,8
					c-1.3,2.3-3.3,4.1-6,5.2c3.3,0.8,5.8,2.5,7.4,5.1c1.6,2.6,2.4,5.7,2.4,9.1c0,6-1.7,10.6-5.2,13.7c-3.5,3.1-8.4,4.7-14.8,4.7H288
					V356.1z M300.3,319.6h6.8c2.5-0.1,4.4-0.8,5.8-2.2c1.3-1.4,2-3.4,2-6.1c0-3-0.7-5.1-2.1-6.5c-1.4-1.4-3.5-2.1-6.3-2.1h-6.2
					V319.6L300.3,319.6z M300.3,328.3v18h8.7c2.6,0,4.5-0.7,5.8-2.2c1.3-1.4,1.9-3.6,1.9-6.5c0-3-0.6-5.3-1.6-6.9
					c-1.1-1.6-2.9-2.4-5.3-2.4H300.3z"/>
				<path class="st1" d="M350.1,356.1h-12.3V293h12.3V356.1z"/>
				<path class="st1" d="M372.7,346.2h23.1v9.8h-35.4v-63h12.4L372.7,346.2L372.7,346.2z"/>
				<path class="st1" d="M435.5,328.4h-21.2v17.9h24.9v9.8h-37.3V293h37.2v9.8h-24.8v15.7h21.2V328.4L435.5,328.4z"/>
			</g>
			<g>
				<path class="st2" d="M264.3,527.4h-46.8l-9.5,37.9h-35l50-177.6h36l49.9,177.6h-35L264.3,527.4z M224.5,499.7h32.7l-16-62.8
					h-0.7L224.5,499.7z"/>
				<path class="st2" d="M322.7,565.3V387.7h53.7c18.2,0,33.3,6.9,45.1,20.7c11.9,13.8,17.8,31.5,17.8,53.3v29.9
					c0,21.7-5.9,39.4-17.8,53.2c-11.9,13.7-26.9,20.6-45.1,20.6h-53.7V565.3z M357.5,415.4v122.2h17c9.7,0,17.1-4.2,22.4-12.6
					c5.2-8.4,7.9-19.6,7.9-33.5v-30.2c0-13.8-2.6-25-7.9-33.3c-5.3-8.3-12.7-12.6-22.4-12.6H357.5z"/>
			</g>
		</g>
	</g>
</g>
<g>
	<path class="st0" d="M180.3,556.7c-9.6,9.6-25.1,9.6-34.7,0l0,0c-9.6-9.6-9.6-25.1,0-34.7L432,235.6c9.6-9.6,25.1-9.6,34.7,0l0,0
		c9.6,9.6,9.6,25.1,0,34.7L180.3,556.7z"/>
	<path class="st0" d="M145.6,270.3c-9.6-9.6-9.6-25.1,0-34.7l0,0c9.6-9.6,25.1-9.6,34.7,0L466.6,522c9.6,9.6,9.6,25.1,0,34.7l0,0
		c-9.6,9.6-25.1,9.6-34.7,0L145.6,270.3z"/>
</g>
</svg>
