<?xml version="1.0" encoding="utf-8"?>
<!-- Generator: Adobe Illustrator 15.0.0, SVG Export Plug-In . SVG Version: 6.00 Build 0)  -->
<!DOCTYPE svg PUBLIC "-//W3C//DTD SVG 1.1//EN" "http://www.w3.org/Graphics/SVG/1.1/DTD/svg11.dtd">
<svg version="1.1" id="Layer_1" xmlns="http://www.w3.org/2000/svg" xmlns:xlink="http://www.w3.org/1999/xlink" x="0px" y="0px"
	 width="20.756px" height="25.512px" viewBox="0 0 20.756 25.512" enable-background="new 0 0 20.756 25.512" xml:space="preserve">
<path fill="#647082" d="M17.336,13.567c-0.028-3.223,2.64-4.791,2.761-4.864c-1.511-2.203-3.853-2.504-4.676-2.528
	c-1.967-0.207-3.875,1.177-4.877,1.177c-1.022,0-2.565-1.157-4.228-1.123c-2.14,0.033-4.142,1.272-5.24,3.196
	C-1.19,13.348,0.5,19.113,2.671,22.284c1.086,1.554,2.355,3.287,4.016,3.226c1.625-0.065,2.232-1.035,4.193-1.035
	c1.943,0,2.514,1.035,4.207,0.996c1.744-0.026,2.842-1.56,3.891-3.127c1.254-1.778,1.758-3.533,1.778-3.623
	C20.716,18.707,17.37,17.43,17.336,13.567z"/>
<path fill="#647082" d="M14.136,4.089C15.01,2.996,15.608,1.509,15.442,0c-1.266,0.056-2.848,0.875-3.758,1.944
	c-0.807,0.942-1.526,2.486-1.34,3.938C11.765,5.988,13.224,5.165,14.136,4.089z"/>
</svg>
