<?xml version="1.0" encoding="utf-8"?>
<!-- Generator: Adobe Illustrator 15.0.0, SVG Export Plug-In . SVG Version: 6.00 Build 0)  -->
<!DOCTYPE svg PUBLIC "-//W3C//DTD SVG 1.1//EN" "http://www.w3.org/Graphics/SVG/1.1/DTD/svg11.dtd">
<svg version="1.1" id="Layer_1" xmlns="http://www.w3.org/2000/svg" xmlns:xlink="http://www.w3.org/1999/xlink" x="0px" y="0px"
	 width="225px" height="225px" viewBox="0 0 225 225" enable-background="new 0 0 225 225" xml:space="preserve">
<rect fill="#FFFFFF" width="225" height="225"/>
<g>
	<g>
		<ellipse opacity="0.15" enable-background="new    " cx="112.601" cy="122.984" rx="22.54" ry="3.718"/>
		<rect x="88.181" y="105.429" fill="#414042" width="48.84" height="10.36"/>
		<rect x="88.181" y="49.57" fill="#414042" width="48.84" height="10.36"/>
		<rect x="100.392" y="42.374" fill="#414042" width="24.418" height="5.18"/>
		<rect x="100.392" y="117.805" fill="#414042" width="24.418" height="5.18"/>
		<polygon fill="#349CD7" points="117.781,89.53 107.421,79.17 107.421,100.249 100.392,100.249 100.392,105.429 124.811,105.429 
			124.811,100.249 117.781,100.249 		"/>
		<polygon fill="#349CD7" points="117.781,64.686 124.811,64.686 124.811,59.93 100.392,59.93 100.392,64.686 107.421,64.686 
			107.421,79.17 107.421,100.249 100.392,100.249 100.392,105.429 124.811,105.429 124.811,100.249 117.781,100.249 117.781,89.53 
					"/>
		<polygon opacity="0.15" enable-background="new    " points="100.392,59.93 100.392,64.686 107.421,64.686 107.421,79.17 
			117.781,89.53 117.781,64.686 124.811,64.686 124.811,59.93 		"/>
		<rect x="100.392" y="117.805" opacity="0.15" enable-background="new    " width="24.418" height="5.18"/>
	</g>
	<path fill="#349CD7" d="M23.5,172.286v-34.452h6.909v34.452H23.5z"/>
	<path fill="#349CD7" d="M34.67,172.286v-25.603h6.412l0.323,3.631c0.853-1.297,1.903-2.306,3.15-3.024
		c1.247-0.719,2.645-1.079,4.193-1.079c2.58,0,4.593,0.832,6.04,2.496c1.447,1.664,2.171,4.295,2.171,7.891v15.688H50.05v-15.7
		c0-1.834-0.319-3.135-0.958-3.9c-0.639-0.768-1.597-1.15-2.875-1.15c-1.026,0-1.929,0.193-2.709,0.582
		c-0.781,0.387-1.423,0.92-1.928,1.6v18.57L34.67,172.286L34.67,172.286z"/>
	<path fill="#349CD7" d="M58.853,151.534v-4.851h3.715v-6.271h6.909v6.271h4.307v4.851h-4.307v13.058
		c0,0.995,0.209,1.706,0.627,2.133c0.417,0.428,0.966,0.641,1.644,0.641c0.363,0,0.678-0.021,0.947-0.061
		c0.268-0.039,0.576-0.105,0.922-0.201l0.568,4.973c-0.694,0.236-1.369,0.413-2.022,0.529c-0.655,0.119-1.369,0.178-2.142,0.178
		c-2.389,0-4.229-0.654-5.518-1.965c-1.291-1.309-1.936-3.383-1.936-6.223v-13.062H58.853z"/>
	<path fill="#349CD7" d="M75.015,160.219v-0.947c0-3.832,1.042-6.972,3.124-9.416c2.066-2.43,4.906-3.645,8.518-3.645
		c0.016,0,0.039,0,0.071,0c3.438,0,6.077,1.053,7.915,3.158c1.837,2.105,2.756,4.941,2.756,8.507v3.572H82.145l-0.071,0.142
		c0.11,1.744,0.643,3.159,1.597,4.243s2.37,1.626,4.247,1.626c1.546,0,2.859-0.157,3.939-0.473c1.08-0.314,2.196-0.793,3.348-1.438
		l1.863,4.262c-1.026,0.84-2.414,1.545-4.165,2.115s-3.66,0.855-5.726,0.855c-3.818,0-6.8-1.172-8.945-3.514
		C76.088,166.927,75.015,163.909,75.015,160.219z M82.185,156.764l0.047,0.118h8.423v-0.521c0-1.498-0.308-2.678-0.923-3.537
		c-0.615-0.859-1.609-1.29-2.981-1.29c-1.388,0-2.457,0.478-3.207,1.432C82.796,153.921,82.342,155.188,82.185,156.764z"/>
	<path fill="#349CD7" d="M100.358,172.286v-25.603h6.412l0.323,3.631c0.853-1.297,1.903-2.306,3.15-3.024
		c1.248-0.72,2.646-1.079,4.192-1.079c2.58,0,4.594,0.832,6.039,2.496c1.447,1.664,2.172,4.295,2.172,7.891v15.688h-6.91v-15.7
		c0-1.834-0.318-3.135-0.957-3.9c-0.639-0.767-1.598-1.15-2.875-1.15c-1.025,0-1.928,0.193-2.709,0.582
		c-0.781,0.387-1.424,0.92-1.929,1.6v18.57L100.358,172.286L100.358,172.286z"/>
	<path fill="#414042" d="M125.475,159.863v-0.711c0-3.754,1.029-6.85,3.088-9.286s4.973-3.655,8.742-3.655
		c3.146,0,5.678,0.898,7.6,2.695c1.859,1.734,2.789,4.004,2.789,6.81c0,0.097,0,0.192,0,0.288l-0.049,0.145h-6.365
		c0-1.324-0.35-2.424-1.053-3.301c-0.701-0.875-1.676-1.312-2.922-1.312c-1.781,0-3.049,0.713-3.798,2.139s-1.124,3.249-1.124,5.469
		v0.711c0,2.268,0.375,4.103,1.124,5.504s2.031,2.104,3.847,2.104c1.197,0,2.151-0.355,2.861-1.07
		c0.71-0.714,1.064-1.666,1.064-2.856h6.365l0.047,0.135c0,0.075,0,0.149,0,0.226c0,2.465-0.965,4.553-2.896,6.26
		c-1.994,1.738-4.463,2.615-7.405,2.632c-3.799,0-6.733-1.21-8.807-3.632C126.512,166.729,125.475,163.634,125.475,159.863z"/>
	<path fill="#414042" d="M150.464,140.557v-5.136h6.909v5.136H150.464z M150.464,172.286v-25.603h6.909v25.603H150.464z"/>
	<path fill="#414042" d="M160.127,151.534v-4.851h3.715v-6.271h6.909v6.271h4.308v4.851h-4.308v13.058
		c0,0.995,0.209,1.706,0.628,2.133c0.417,0.428,0.965,0.641,1.645,0.641c0.363,0,0.679-0.021,0.947-0.061
		c0.268-0.039,0.574-0.105,0.922-0.201l0.567,4.973c-0.694,0.236-1.369,0.413-2.022,0.529c-0.654,0.119-1.369,0.178-2.142,0.178
		c-2.39,0-4.229-0.654-5.519-1.965c-1.291-1.309-1.937-3.383-1.937-6.223v-13.062H160.127z"/>
	<path fill="#414042" d="M176.986,146.684h7.43l4.33,14.871l0.283,1.422h0.143l4.898-16.293h7.43l-10.389,29.437
		c-0.726,1.829-1.711,3.371-2.957,4.626c-1.245,1.254-3.115,1.881-5.607,1.881c-0.583,0-1.124-0.048-1.621-0.143
		c-0.496-0.094-1.1-0.228-1.81-0.399l0.805-5.019c0.205,0.031,0.427,0.062,0.662,0.095c0.235,0.03,0.45,0.047,0.64,0.047
		c1.135,0,2.012-0.28,2.627-0.841c0.614-0.561,1.088-1.26,1.42-2.096l0.803-1.988L176.986,146.684z"/>
</g>
</svg>
