<?xml version="1.0" encoding="utf-8"?>
<!-- Generator: Adobe Illustrator 15.0.0, SVG Export Plug-In . SVG Version: 6.00 Build 0)  -->
<!DOCTYPE svg PUBLIC "-//W3C//DTD SVG 1.1//EN" "http://www.w3.org/Graphics/SVG/1.1/DTD/svg11.dtd">
<svg version="1.1" id="Layer_1" xmlns="http://www.w3.org/2000/svg" xmlns:xlink="http://www.w3.org/1999/xlink" x="0px" y="0px"
	 width="311.819px" height="368.392px" viewBox="0 0 311.819 368.392" enable-background="new 0 0 311.819 368.392"
	 xml:space="preserve">
<path fill="#FFFFFF" d="M22.724,119.161c-12.556-0.006-22.732,10.19-22.735,22.735l0.017,95.213
	c0.003,12.588,10.198,22.747,22.738,22.759c12.567-0.015,22.745-10.178,22.732-22.758l0.001-95.227
	C45.472,129.342,35.282,119.152,22.724,119.161"/>
<path fill="#FFFFFF" d="M206.079,33.659l15.869-28.981c0.847-1.514,0.293-3.454-1.237-4.293c-1.553-0.835-3.468-0.265-4.285,1.257
	L200.39,30.914c-13.486-5.985-28.585-9.356-44.547-9.34c-15.929-0.014-31.001,3.34-44.448,9.308L95.349,1.676
	c-0.828-1.541-2.762-2.104-4.271-1.255c-1.543,0.823-2.107,2.759-1.252,4.27l15.877,28.956
	c-31.196,16.092-52.271,46.727-52.255,81.898l204.811-0.021C258.265,80.357,237.227,49.787,206.079,33.659 M109.261,78.441
	c-4.716-0.01-8.559-3.844-8.56-8.581c0.002-4.718,3.842-8.596,8.567-8.596c4.749-0.004,8.59,3.878,8.596,8.594
	C117.866,74.591,114.017,78.438,109.261,78.441 M202.518,78.424c-4.734,0.005-8.597-3.828-8.588-8.585
	c0-4.707,3.848-8.588,8.592-8.604c4.709,0.014,8.572,3.896,8.568,8.609C211.093,74.584,207.251,78.425,202.518,78.424"/>
<path fill="#FFFFFF" d="M54.322,270.995c-0.012,13.436,10.833,24.282,24.257,24.277l16.52,0.001l0.019,50.379
	c-0.003,12.541,10.187,22.737,22.72,22.739c12.564,0,22.742-10.206,22.731-22.757l0.002-50.367l30.696-0.006l-0.002,50.377
	c0.011,12.543,10.214,22.749,22.743,22.729c12.562,0.008,22.747-10.198,22.745-22.749l-0.014-50.363l16.58-0.005
	c13.378,0.005,24.261-10.867,24.26-24.273l-0.025-147.56l-203.269,0.037L54.322,270.995z"/>
<path fill="#FFFFFF" d="M289.066,119.13c-12.555-0.01-22.731,10.186-22.729,22.743l0.009,95.213
	c0.006,12.572,10.177,22.743,22.743,22.735c12.555-0.002,22.719-10.165,22.729-22.743l-0.025-95.211
	C311.792,129.307,301.623,119.127,289.066,119.13"/>
<path fill="#647082" d="M22.724,119.161c-12.556-0.006-22.732,10.19-22.735,22.735l0.017,95.213
	c0.003,12.588,10.184,22.745,22.74,22.743c12.564,0.001,22.742-10.162,22.729-22.742l0.001-95.227
	C45.472,129.342,35.282,119.152,22.724,119.161 M206.079,33.659l15.869-28.981c0.847-1.514,0.291-3.443-1.244-4.298
	c-1.548-0.819-3.46-0.263-4.278,1.262l-16.029,29.283c-13.491-6.001-28.582-9.37-44.553-9.352
	c-15.929-0.014-31.016,3.341-44.448,9.308L95.349,1.676c-0.835-1.542-2.754-2.099-4.27-1.259c-1.544,0.831-2.108,2.763-1.253,4.274
	l15.877,28.959c-31.195,16.089-52.271,46.724-52.254,81.896l204.811-0.021C258.265,80.357,237.227,49.787,206.079,33.659
	 M109.261,78.441c-4.716-0.01-8.559-3.844-8.56-8.581c0.002-4.718,3.835-8.597,8.567-8.596c4.749-0.004,8.59,3.878,8.596,8.594
	C117.866,74.591,114.017,78.438,109.261,78.441 M202.518,78.424c-4.734,0.005-8.589-3.834-8.588-8.585
	c0.016-4.704,3.848-8.588,8.592-8.604c4.709,0.014,8.572,3.896,8.568,8.609C211.101,74.585,207.251,78.425,202.518,78.424
	 M54.285,123.454l0.035,147.555c-0.01,13.422,10.845,24.255,24.26,24.258l16.519,0.007l0.019,50.379
	c-0.003,12.541,10.193,22.739,22.72,22.739c12.564,0,22.742-10.206,22.746-22.755l-0.013-50.369l30.696-0.006l0.013,50.377
	c-0.003,12.535,10.199,22.749,22.729,22.729c12.562,0.008,22.747-10.198,22.745-22.749l-0.014-50.363l16.576-0.013
	c13.383,0.005,24.269-10.844,24.271-24.266l-0.025-147.558L54.285,123.454z M311.802,141.861
	c-0.002-12.557-10.18-22.734-22.736-22.731c-12.555-0.01-22.731,10.186-22.729,22.743l0.016,95.215
	c-0.001,12.57,10.172,22.729,22.736,22.733c12.555-0.002,22.727-10.163,22.729-22.743L311.802,141.861z"/>
</svg>
